%FSLAX32Y32*%
%MOMM*%
%LNKUPFERSEITE1*%
G71*
G01*
%ADD10C, 1.50*%
%ADD11C, 2.00*%
%ADD12C, 1.30*%
%ADD13C, 0.40*%
%LPD*%
X2906Y2112D02*
G54D10*
D03*
X3046Y1985D02*
G54D10*
D03*
X3186Y2112D02*
G54D10*
D03*
X868Y2186D02*
G54D11*
D03*
X690Y1841D02*
G54D10*
D03*
X550Y1714D02*
G54D10*
D03*
X410Y1841D02*
G54D10*
D03*
X823Y1133D02*
G54D11*
D03*
X1077Y1387D02*
G54D11*
D03*
X1077Y879D02*
G54D11*
D03*
X3154Y306D02*
G54D11*
D03*
X3154Y555D02*
G54D11*
D03*
G54D12*
X2212Y520D02*
X2288Y520D01*
X2123Y271D02*
G54D11*
D03*
X2123Y520D02*
G54D11*
D03*
G36*
X4862Y2147D02*
X4862Y1947D01*
X4662Y1947D01*
X4662Y2147D01*
X4862Y2147D01*
G37*
X4762Y1793D02*
G54D11*
D03*
G36*
X3258Y2344D02*
X3058Y2344D01*
X3058Y2544D01*
X3258Y2544D01*
X3258Y2344D01*
G37*
X2904Y2444D02*
G54D11*
D03*
X2650Y2444D02*
G54D11*
D03*
X2396Y2444D02*
G54D11*
D03*
X2142Y2444D02*
G54D11*
D03*
X1888Y2444D02*
G54D11*
D03*
X1634Y2444D02*
G54D11*
D03*
X1380Y2444D02*
G54D11*
D03*
G36*
X3242Y788D02*
X3042Y788D01*
X3042Y988D01*
X3242Y988D01*
X3242Y788D01*
G37*
X2888Y888D02*
G54D11*
D03*
X2634Y888D02*
G54D11*
D03*
X2380Y888D02*
G54D11*
D03*
X2126Y888D02*
G54D11*
D03*
X1872Y888D02*
G54D11*
D03*
X1618Y888D02*
G54D11*
D03*
X1364Y888D02*
G54D11*
D03*
G36*
X4560Y2402D02*
X4560Y2202D01*
X4360Y2202D01*
X4360Y2402D01*
X4560Y2402D01*
G37*
X4460Y2048D02*
G54D11*
D03*
X4460Y1794D02*
G54D11*
D03*
X4460Y1540D02*
G54D11*
D03*
X4460Y1286D02*
G54D11*
D03*
X4460Y1032D02*
G54D11*
D03*
G36*
X3313Y2544D02*
X3513Y2544D01*
X3513Y2344D01*
X3313Y2344D01*
X3313Y2544D01*
G37*
X3667Y2444D02*
G54D11*
D03*
X3921Y2444D02*
G54D11*
D03*
X4175Y2444D02*
G54D11*
D03*
G36*
X3297Y989D02*
X3497Y989D01*
X3497Y789D01*
X3297Y789D01*
X3297Y989D01*
G37*
X3651Y889D02*
G54D11*
D03*
X3905Y889D02*
G54D11*
D03*
X4159Y889D02*
G54D11*
D03*
G54D12*
X1365Y873D02*
X1064Y873D01*
G54D12*
X3143Y889D02*
X3143Y1095D01*
X3270Y1222D01*
X3905Y1222D01*
G54D12*
X4175Y1794D02*
X4175Y1222D01*
X3826Y1222D01*
G54D12*
X3159Y2444D02*
X3159Y2206D01*
X3302Y2063D01*
X4778Y2063D01*
G36*
X2706Y1849D02*
X2546Y1849D01*
X2546Y2009D01*
X2706Y2009D01*
X2706Y1849D01*
G37*
G36*
X2426Y1849D02*
X2266Y1849D01*
X2266Y2009D01*
X2426Y2009D01*
X2426Y1849D01*
G37*
G36*
X2571Y1240D02*
X2571Y1400D01*
X2731Y1400D01*
X2731Y1240D01*
X2571Y1240D01*
G37*
G36*
X2571Y1520D02*
X2571Y1680D01*
X2731Y1680D01*
X2731Y1520D01*
X2571Y1520D01*
G37*
G36*
X2403Y1681D02*
X2403Y1521D01*
X2203Y1521D01*
X2203Y1681D01*
X2403Y1681D01*
G37*
G36*
X2403Y1401D02*
X2403Y1241D01*
X2203Y1241D01*
X2203Y1401D01*
X2403Y1401D01*
G37*
X1092Y2572D02*
G54D11*
D03*
G54D13*
X464Y2846D02*
X597Y2846D01*
G54D13*
X531Y2902D02*
X531Y2791D01*
G54D13*
X756Y2749D02*
X756Y2971D01*
G54D13*
X889Y2749D02*
X889Y2971D01*
G54D13*
X756Y2860D02*
X889Y2860D01*
G54D13*
X967Y2971D02*
X967Y2749D01*
X1050Y2888D01*
X1134Y2749D01*
X1134Y2971D01*
G54D13*
X1293Y2846D02*
X1426Y2846D01*
G54D12*
X2302Y1349D02*
X1968Y1349D01*
G36*
X462Y1047D02*
X462Y1207D01*
X622Y1207D01*
X622Y1047D01*
X462Y1047D01*
G37*
G36*
X462Y1327D02*
X462Y1487D01*
X622Y1487D01*
X622Y1327D01*
X462Y1327D01*
G37*
G54D12*
X810Y1127D02*
X524Y1127D01*
G36*
X1575Y1419D02*
X1735Y1419D01*
X1735Y1259D01*
X1575Y1259D01*
X1575Y1419D01*
G37*
G36*
X1855Y1419D02*
X2015Y1419D01*
X2015Y1259D01*
X1855Y1259D01*
X1855Y1419D01*
G37*
X423Y2187D02*
G54D11*
D03*
G36*
X532Y2476D02*
X372Y2476D01*
X372Y2636D01*
X532Y2636D01*
X532Y2476D01*
G37*
G36*
X252Y2476D02*
X92Y2476D01*
X92Y2636D01*
X252Y2636D01*
X252Y2476D01*
G37*
X757Y2568D02*
G54D11*
D03*
G54D12*
X2889Y539D02*
X3143Y539D01*
X3143Y904D01*
G54D12*
X4762Y1794D02*
X4175Y1794D01*
G54D12*
X3905Y889D02*
X3905Y555D01*
X3651Y301D01*
X3159Y301D01*
X2889Y539D02*
G54D11*
D03*
X2381Y539D02*
G54D11*
D03*
G54D12*
X2381Y539D02*
X2127Y539D01*
X2111Y524D01*
X2127Y539D01*
X572Y539D01*
G54D12*
X2111Y285D02*
X3143Y285D01*
X3159Y301D01*
G54D12*
X2905Y2444D02*
X2905Y2159D01*
X159Y1857D02*
G54D11*
D03*
X159Y2190D02*
G54D11*
D03*
X350Y706D02*
G54D11*
D03*
X526Y530D02*
G54D11*
D03*
G54D12*
X2651Y1635D02*
X2651Y1936D01*
G54D12*
X2350Y1920D02*
X2350Y1651D01*
G54D12*
X2350Y1349D02*
X2715Y1349D01*
G54D12*
X2699Y1349D02*
X2937Y1349D01*
X3302Y1714D01*
X3302Y2063D01*
G54D12*
X1095Y2619D02*
X1095Y2254D01*
X1238Y2111D01*
X2080Y2111D01*
G54D12*
X556Y1714D02*
X556Y1412D01*
G54D12*
X683Y1841D02*
X698Y1841D01*
X937Y1603D01*
X1572Y1603D01*
X1651Y1524D01*
X1651Y1365D01*
G54D12*
X159Y1857D02*
X397Y1857D01*
X413Y1841D01*
G54D12*
X159Y1857D02*
X159Y904D01*
X349Y714D01*
G54D12*
X2334Y1936D02*
X2334Y2048D01*
X2270Y2111D01*
X1984Y2111D01*
G54D12*
X3032Y1984D02*
X2969Y1920D01*
X2635Y1920D01*
G54D12*
X159Y2190D02*
X159Y2556D01*
G54D12*
X413Y2190D02*
X159Y2190D01*
G54D12*
X873Y2174D02*
X873Y2095D01*
X1127Y1841D01*
X1746Y1841D01*
X1937Y1651D01*
X1937Y1349D01*
G54D12*
X762Y2571D02*
X460Y2571D01*
M02*
